<svg fill="none" version="1.1" viewBox="0 0 100.63 35.648" xmlns="http://www.w3.org/2000/svg">
 <path d="m0.76557 3.9404c-0.083107 1.0137 0.658 3.9678 1.295 5.2814 0.661 1.3615 1.1075 3.2264 1.1075 4.6235 0 1.9794-0.14901 2.3413-0.96451 2.3413-2.067 0-3.0645 2.4969-1.2725 3.1849 0.446 0.171 0.5885 9e-3 0.408-0.461-0.1755-0.457 0.035-0.725 0.57-0.725 0.722 0 0.82249 0.446 0.67849 3.001l-0.16949 3 15.292-2e-3 2.2095 1.624c1.215 0.894 2.2185 1.748 2.229 1.899s-1.2775 0.543-2.8625 0.87c-1.585 0.328-3.4095 0.965-4.055 1.417-1.164 0.815-1.141 0.833 3.0755 2.463 4.186 1.618 12.921 3.273 16.752 3.175l1.86-0.047-2.4285-0.807c-1.3355-0.443-3.3605-1.65-4.5-2.681l-2.0715-1.874 1.641-0.021c1.9435-0.024 4.66 1.283 6.85 2.4135 3.6083 1.144 12.344 2.4425 20.863 1.6205 5.875-0.567 5.4756-0.71251 7.934-1.857 1.397-1.321 3.8565-2.197 6.1615-2.197 1.432 0 1.441 0.016 0.5365 1.015-1.302 1.438-3.958 3.001-6.3975 3.764l-2.088 0.652 1.936 0.033c5.5915 0.097 20.814-3.538 20.814-4.97 0-0.497-3.515-1.848-6.1875-2.378l-1.9375-0.385 2.3945-1.864 2.3945-1.865h15.386l-0.3395-2.999c-0.2915-2.578-0.2245-3 0.4755-3 0.448 0 0.8145 0.365 0.8145 0.811 0 0.664 0.1355 0.699 0.75 0.189 1.1739-0.974 0.8859-2.0352-0.717-2.6395-2.418-0.9127-2.671-3.5059-0.7205-7.3882 2.0851-6.8379-0.2696-7.886-0.80429-9.1578 0.35654 2.5453 0.66379 4.1958 0.04479 6.4921-1.2145 4.5091-5.955 9.753-13.053 14.439-2.6125 1.724-5.871 4.061-7.241 5.193-2.097 1.733-2.844 2.058-4.7265 2.058h-2.2355l1.953-1.999c1.647-1.686 2.272-1.999 3.99-1.999 1.987 0 4.26-1.083 4.26-2.028 0-0.26-0.474-0.472-1.0535-0.472-0.7075 0-0.9635-0.234-0.7795-0.714 0.151-0.393 0.425-1.516 0.609-2.497l0.3345-1.7831 1.483 1.2481c2.391 2.011 3.1055 1.446 0.926-0.7327-1.342-1.3416-2.232-2.8466-2.7625-4.6701-0.4305-1.48-1.1325-3.1195-1.5605-3.6438-0.7605-0.9307-0.77-0.9297-0.426 0.047 1.384 3.9262 0.50158 11.511-0.92242 12.692-1.0309 0.38681-4.9171 2.4928-7.3592 5.4981-7.0476 8.6733-33.999 5.417-37.216 0.64436-2.2118-2.8145-2.0884-3.781-7.9419-6.0658-0.568-1.46-1.7304-10.612-1.0589-12.226 0.2685-0.6453 0.22-0.8467-0.148-0.6193-0.3005 0.1854-1.0215 1.7404-1.6025 3.4559-1.1155 3.294-1.9905 4.6056-4.008 6.0082-1.7355 1.207-0.1665 1.101 1.8435-0.124 1.798-1.0962 1.909-1.0217 2.4035 1.612 0.322 1.717 0.2575 1.87-0.792 1.87h-1.143l1.1745 1.25c0.9035 0.961 1.702 1.26 3.462 1.292 2.0175 0.037 2.487 0.273 3.971 1.999l1.683 1.957h-2.1135c-1.711 0-2.556-0.364-4.433-1.908-2.4145-1.986-4.8245-3.683-9.6995-6.832-5.4845-3.5423-10.584-10.41-11.214-15.102-0.1545-1.1536 0.14924-2.6727 0.503-3.6548 0 0-1.7468 0.40462-2.062 3.2549zm24.923 26.836c1.8225 1.347 1.876 1.905 0.182 1.905-1.783 0-6.702-1.472-6.702-2.005 0-0.238 0.844-0.522 1.875-0.63 1.0315-0.108 2.1655-0.234 2.52-0.28 0.355-0.046 1.3115 0.408 2.125 1.01zm55.48-0.13c0-0.255-0.394-0.467-0.875-0.47s-1.6625-0.134-2.625-0.291c-1.496-0.244-1.9635-0.062-3.2185 1.255l-1.4685 1.541h1.3915c1.907 0 6.7955-1.464 6.7955-2.035zm14-11.502c0 0.528 0.1365 1.315 0.3035 1.75 0.2625 0.684-0.292 0.79-4.125 0.788l-4.4285-1e-3 1.5825-0.965c1.443-0.88 5.382-2.449 6.2925-2.507 0.2065-0.013 0.375 0.408 0.375 0.935zm-81.25 2.496-2-1.059c-2.4455-1.295-6.052-2.427-6.4545-2.025-0.1625 0.163-0.2955 0.933-0.2955 1.712v1.416l4.375-0.022z" clip-rule="evenodd" fill="none" fill-rule="evenodd"/>
</svg>
